<mxfile host="app.diagrams.net" modified="2023-08-10T13:13:57.143Z" agent="Mozilla/5.0 (X11; Linux x86_64) AppleWebKit/537.36 (KHTML, like Gecko) Chrome/115.0.0.0 Safari/537.36" version="21.6.6" etag="RDG6LdLEk2WH4d84ctNu" type="github">
  <diagram name="Page-1" id="EFAw7JEKvoWatlYYddJ6">
    <mxGraphModel>
      <root>
        <mxCell id="0" />
        <mxCell id="1" parent="0" />
      </root>
    </mxGraphModel>
  </diagram>
</mxfile>
